<?xml version="1.0" encoding="UTF-8"?>
<svg version="1.1" xmlns="http://www.w3.org/2000/svg" width="512" height="512">
<path d="M0 0 C1.44566345 0.00081573 1.44566345 0.00081573 2.92053223 0.00164795 C18.81036065 0.04272137 34.04482204 1.02162509 49.625 4.375 C50.64352051 4.58930664 51.66204102 4.80361328 52.71142578 5.02441406 C92.99568448 13.7287027 129.58135367 32.30205262 160.625 59.375 C160.295 58.570625 159.965 57.76625 159.625 56.9375 C157.24668788 48.46476307 158.64439956 42.62877234 162.84765625 34.875 C164.55137585 32.47855925 165.39893413 31.40892659 168.125 30.4375 C172.40998626 30.36098239 174.30596256 30.60913547 177.625 33.375 C178.92597446 37.03081092 179.28082443 40.63899417 177.89453125 44.30859375 C177.59933594 44.88738281 177.30414063 45.46617188 177 46.0625 C176.319375 47.7021875 176.319375 47.7021875 175.625 49.375 C176.89987535 52.42490627 176.89987535 52.42490627 178.625 55.375 C179.48387849 61.75524021 177.19486202 66.67311864 174.625 72.375 C175.14707031 72.86226563 175.66914063 73.34953125 176.20703125 73.8515625 C182.5388227 79.95048597 187.925537 86.52795109 193.21777344 93.51904297 C194.59494959 95.33536724 195.98845639 97.13825704 197.3828125 98.94140625 C211.58592322 117.54523164 222.16356196 138.60999589 230.625 160.375 C231.78515625 160.28798828 231.78515625 160.28798828 232.96875 160.19921875 C239.18488271 159.92995558 243.89107099 159.97650265 249 163.765625 C253.04031036 167.76708622 254.80823524 172.23465223 255.1875 177.875 C254.94890066 182.79185069 253.05430722 186.84408368 249.625 190.375 C247.975 191.035 246.325 191.695 244.625 192.375 C244.625 213.165 244.625 233.955 244.625 255.375 C250.565 255.375 256.505 255.375 262.625 255.375 C267.625 258.375 267.625 258.375 268.625 260.375 C268.72707633 262.22833876 268.76449037 264.08536604 268.77217102 265.9414978 C268.78290398 267.71654442 268.78290398 267.71654442 268.79385376 269.52745056 C268.79788712 271.48491966 268.79788712 271.48491966 268.80200195 273.48193359 C268.80826577 274.86488517 268.8149125 276.24783505 268.82191467 277.63078308 C268.8393301 281.39320406 268.84987757 285.15561234 268.8581202 288.91806364 C268.86326846 291.26759913 268.86934422 293.61713066 268.87563133 295.96666336 C268.89468361 303.31468837 268.90891553 310.66270331 268.9172433 318.01074827 C268.92702156 326.49890181 268.95335604 334.98679497 268.99374419 343.47485673 C269.02387654 350.03202011 269.03870936 356.58910872 269.04202431 363.14634001 C269.04437782 367.06453916 269.05337688 370.98246016 269.07848549 374.90058517 C269.10172165 378.58604361 269.1060178 382.27103988 269.09572411 385.95655251 C269.09499066 387.95490592 269.11411255 389.95323563 269.13378906 391.95149231 C269.12337334 393.7349984 269.12337334 393.7349984 269.11274719 395.55453491 C269.11513555 396.58803259 269.1175239 397.62153027 269.11998463 398.68634605 C268.49564062 402.07765335 267.26616214 403.23293098 264.625 405.375 C261.61502646 406.87998677 258.54003231 406.44097123 255.24462891 406.37402344 C253.66607411 406.3512519 252.08751114 406.32904154 250.50894165 406.30731201 C249.66932514 406.29452965 248.82970863 406.28174728 247.9646492 406.26857758 C242.5735293 406.19801345 237.18187614 406.19175818 231.79036903 406.17472458 C227.05919568 406.15612788 222.33044459 406.11451357 217.60009766 406.02197266 C213.01920692 405.93362684 208.44186861 405.90987995 203.86021042 405.92835236 C202.12269603 405.92407901 200.38506932 405.89707126 198.64830399 405.8458786 C188.05657063 405.42703429 188.05657063 405.42703429 178.98626709 410.19104004 C176.35838283 412.87055153 174.08592944 415.75441946 171.867733 418.77646637 C141.81435635 457.43427397 81.64359056 479.2879642 35.625 486.375 C34.40852783 486.56980957 34.40852783 486.56980957 33.16748047 486.76855469 C-27.87592523 496.16389672 -93.1995952 478.85466951 -142.92578125 442.828125 C-146.14965469 440.43476537 -149.27534599 437.92640271 -152.375 435.375 C-152.91898437 434.9325293 -153.46296875 434.49005859 -154.0234375 434.03417969 C-167.70749706 422.84887985 -180.69132984 410.48920645 -191.375 396.375 C-191.99785889 395.56675781 -191.99785889 395.56675781 -192.63330078 394.7421875 C-200.32008618 384.7434816 -207.03297194 374.26957306 -213.375 363.375 C-213.7369043 362.76253418 -214.09880859 362.15006836 -214.47167969 361.51904297 C-232.55619914 330.65421957 -243.29484687 292.41009023 -243.61328125 256.6015625 C-243.6230751 255.688302 -243.63286896 254.7750415 -243.64295959 253.83410645 C-243.81439427 233.695493 -243.72133177 214.13857103 -239.375 194.375 C-239.16069336 193.39031738 -238.94638672 192.40563477 -238.72558594 191.39111328 C-232.10542344 161.97619914 -220.4157463 133.30982384 -203.375 108.375 C-202.97603516 107.78219238 -202.57707031 107.18938477 -202.16601562 106.57861328 C-195.87698268 97.27925015 -188.83822072 88.75020349 -181.375 80.375 C-180.88821777 79.82505371 -180.40143555 79.27510742 -179.89990234 78.70849609 C-175.06551418 73.26228365 -170.21470742 67.91486127 -164.60546875 63.24609375 C-162.90634217 61.82073187 -161.24939835 60.34492324 -159.61328125 58.84765625 C-135.53149863 36.9972013 -106.04956265 21.63538315 -75.375 11.375 C-74.59189453 11.11251465 -73.80878906 10.8500293 -73.00195312 10.57958984 C-64.90884023 7.92190906 -56.71518523 5.90776364 -48.375 4.1875 C-47.62895508 4.03240967 -46.88291016 3.87731934 -46.11425781 3.7175293 C-30.78632539 0.7342077 -15.57945026 -0.03325641 0 0 Z " fill="#C7D6E4" transform="translate(243.375,12.625)"/>
<path d="M0 0 C1.44566345 0.00081573 1.44566345 0.00081573 2.92053223 0.00164795 C18.81036065 0.04272137 34.04482204 1.02162509 49.625 4.375 C50.64352051 4.58930664 51.66204102 4.80361328 52.71142578 5.02441406 C92.99568448 13.7287027 129.58135367 32.30205262 160.625 59.375 C160.295 58.570625 159.965 57.76625 159.625 56.9375 C157.24668788 48.46476307 158.64439956 42.62877234 162.84765625 34.875 C164.55137585 32.47855925 165.39893413 31.40892659 168.125 30.4375 C172.40998626 30.36098239 174.30596256 30.60913547 177.625 33.375 C178.92597446 37.03081092 179.28082443 40.63899417 177.89453125 44.30859375 C177.59933594 44.88738281 177.30414063 45.46617188 177 46.0625 C176.319375 47.7021875 176.319375 47.7021875 175.625 49.375 C176.89987535 52.42490627 176.89987535 52.42490627 178.625 55.375 C179.48387849 61.75524021 177.19486202 66.67311864 174.625 72.375 C175.14707031 72.86226563 175.66914063 73.34953125 176.20703125 73.8515625 C182.5388227 79.95048597 187.925537 86.52795109 193.21777344 93.51904297 C194.59494959 95.33536724 195.98845639 97.13825704 197.3828125 98.94140625 C210.63170476 116.2953566 220.4887016 135.74867358 228.97265625 155.80859375 C229.31433838 156.61224365 229.65602051 157.41589355 230.00805664 158.24389648 C230.625 160.375 230.625 160.375 229.625 163.375 C223.7069503 164.70354177 220.84770869 164.03964729 215.625 161.375 C215.79 160.75625 215.955 160.1375 216.125 159.5 C217.07763238 153.5460476 217.98635628 147.72483215 214.5625 142.4375 C211.23934718 138.49067424 207.50786765 136.77749461 202.38671875 136.0625 C196.96544511 135.7709357 193.84606106 136.7429242 189.625 140.375 C185.13180966 145.35394065 184.39966744 148.72768961 184.625 155.375 C184.91685063 157.3814731 185.23669599 159.38494193 185.625 161.375 C180.7621701 163.80641495 178.06584756 164.89337606 172.625 163.375 C171.965 163.045 171.305 162.715 170.625 162.375 C168.66950744 162.25242539 166.70929382 162.19947612 164.75 162.1875 C163.70070313 162.17332031 162.65140625 162.15914062 161.5703125 162.14453125 C158.64489879 162.37344293 157.14117657 162.974072 154.625 164.375 C151.875 164.5 151.875 164.5 149.625 164.375 C149.955 163.446875 150.285 162.51875 150.625 161.5625 C152.40052325 155.23237362 152.84659239 148.81818478 149.875 142.875 C146.03273408 138.60581565 143.17368913 136.76858189 137.4765625 136.13671875 C131.99113284 135.95387109 128.89390359 136.60248054 124.625 140.375 C120.09804891 145.14021168 120.23733681 149.41751399 120.38671875 155.66796875 C120.52798883 158.47034209 120.52798883 158.47034209 121.625 161.375 C120.39523437 161.44847656 120.39523437 161.44847656 119.140625 161.5234375 C118.06296875 161.59820312 116.9853125 161.67296875 115.875 161.75 C114.80765625 161.81960937 113.7403125 161.88921875 112.640625 161.9609375 C109.78234371 162.35339581 108.13442115 163.06597295 105.625 164.375 C102.64975039 164.07747504 100.30258805 163.71379403 97.625 162.375 C95.5875237 162.14641886 93.54459697 161.96475722 91.5 161.8125 C90.40429688 161.72871094 89.30859375 161.64492187 88.1796875 161.55859375 C87.33664062 161.49800781 86.49359375 161.43742188 85.625 161.375 C85.955 160.385 86.285 159.395 86.625 158.375 C87.5152235 150.49065601 87.5152235 150.49065601 85.42578125 143.03515625 C82.24214541 139.24205864 79.08570903 136.77238158 74.109375 135.96875 C67.74934881 135.75069196 64.12186218 136.60627354 59.18359375 140.671875 C55.93672468 144.21983218 55.34885072 147.11583134 55.375 151.875 C55.36984375 152.8134375 55.3646875 153.751875 55.359375 154.71875 C55.63208215 157.44582149 56.35182849 158.99032955 57.625 161.375 C57.625 162.365 57.625 163.355 57.625 164.375 C51.12065217 163.60978261 51.12065217 163.60978261 48.25 162.25 C44.3383739 160.94612463 40.61095599 161.44942221 36.625 162.375 C35.14 163.365 35.14 163.365 33.625 164.375 C29.270335 164.05243222 25.59537118 163.17971417 21.625 161.375 C21.79 160.55 21.955 159.725 22.125 158.875 C23.04457781 152.4379553 23.58837708 147.4710219 19.94140625 141.91796875 C16.89081913 138.34235477 13.72716029 136.70282886 9.1953125 135.99609375 C3.16148215 135.71182515 -0.60485957 136.65429047 -5.375 140.375 C-9.11283042 144.65631318 -9.80138071 148.68803489 -9.61328125 154.26171875 C-9.375347 156.3719225 -8.94257757 158.33079787 -8.375 160.375 C-15.97671045 165.14470067 -15.97671045 165.14470067 -20.375 164.375 C-21.48875 163.88 -22.6025 163.385 -23.75 162.875 C-27.79989542 161.19918121 -30.04090625 160.76670614 -34.375 161.375 C-39.52124327 163.68652886 -42.89633954 166.20800388 -45.375 171.375 C-46.20748306 176.94738659 -46.12125519 181.85583765 -43.625 186.9375 C-41.5702602 189.39199181 -41.5702602 189.39199181 -39.26275635 190.64460754 C-37.375 192.375 -37.375 192.375 -36.89398193 195.12748718 C-36.90286438 196.24001358 -36.91174683 197.35253998 -36.92089844 198.4987793 C-36.92120056 199.75986008 -36.92150269 201.02094086 -36.92181396 202.32023621 C-36.94224054 203.69657013 -36.96310452 205.07289761 -36.984375 206.44921875 C-36.99183652 207.85739845 -36.99752987 209.26558855 -37.00152588 210.67378235 C-37.01678962 214.37794729 -37.05607664 218.08148362 -37.1003418 221.78540039 C-37.14127924 225.56583146 -37.15953356 229.34636423 -37.1796875 233.12695312 C-37.22257117 240.54325516 -37.2908302 247.95903946 -37.375 255.375 C-39.12876953 255.43107422 -39.12876953 255.43107422 -40.91796875 255.48828125 C-42.46617675 255.5539628 -44.01435242 255.62040939 -45.5625 255.6875 C-46.33142578 255.71005859 -47.10035156 255.73261719 -47.89257812 255.75585938 C-52.48424853 255.97263351 -55.6347126 256.43360894 -59.375 259.375 C-60.85249003 262.32998007 -60.54065337 265.00503769 -60.58032227 268.30322266 C-60.59022186 269.01552536 -60.60012146 269.72782806 -60.61032104 270.4617157 C-60.64195858 272.82079726 -60.6667023 275.17989897 -60.69140625 277.5390625 C-60.71197384 279.17288747 -60.73297026 280.80670708 -60.75437927 282.44052124 C-60.80962013 286.74442216 -60.8590205 291.04837126 -60.90722656 295.35235596 C-60.9574269 299.74276018 -61.01312061 304.13309429 -61.06835938 308.5234375 C-61.17596558 317.14056575 -61.27740506 325.75775258 -61.375 334.375 C-62.95716727 334.87204201 -64.54119585 335.36316145 -66.12597656 335.85180664 C-67.00787659 336.12593887 -67.88977661 336.40007111 -68.79840088 336.68251038 C-72.33782863 337.63377089 -75.45628501 337.74780274 -79.125 337.8125 C-91.08321193 338.30646603 -101.42994267 342.30777183 -112.30224609 347.00268555 C-117.72125352 349.2769678 -122.45382934 350.28101316 -128.375 350.375 C-128.375 344.435 -128.375 338.495 -128.375 332.375 C-149.66 332.87 -149.66 332.87 -171.375 333.375 C-171.705 360.765 -172.035 388.155 -172.375 416.375 C-214.54685142 380.22769879 -238.62195925 320.70618479 -243.375 266.375 C-243.53331384 263.11710791 -243.58427879 259.86294209 -243.61328125 256.6015625 C-243.6230751 255.688302 -243.63286896 254.7750415 -243.64295959 253.83410645 C-243.81439427 233.695493 -243.72133177 214.13857103 -239.375 194.375 C-239.16069336 193.39031738 -238.94638672 192.40563477 -238.72558594 191.39111328 C-232.10542344 161.97619914 -220.4157463 133.30982384 -203.375 108.375 C-202.97603516 107.78219238 -202.57707031 107.18938477 -202.16601562 106.57861328 C-195.87698268 97.27925015 -188.83822072 88.75020349 -181.375 80.375 C-180.88821777 79.82505371 -180.40143555 79.27510742 -179.89990234 78.70849609 C-175.06551418 73.26228365 -170.21470742 67.91486127 -164.60546875 63.24609375 C-162.90634217 61.82073187 -161.24939835 60.34492324 -159.61328125 58.84765625 C-135.53149863 36.9972013 -106.04956265 21.63538315 -75.375 11.375 C-74.59189453 11.11251465 -73.80878906 10.8500293 -73.00195312 10.57958984 C-64.90884023 7.92190906 -56.71518523 5.90776364 -48.375 4.1875 C-47.62895508 4.03240967 -46.88291016 3.87731934 -46.11425781 3.7175293 C-30.78632539 0.7342077 -15.57945026 -0.03325641 0 0 Z " fill="#566CC2" transform="translate(243.375,12.625)"/>
<path d="M0 0 C4.72860454 4.51366797 7.31192454 9.80184702 8.3125 16.25 C7.08713311 23.60220135 4.12997232 27.77240809 -1.84179688 32.08813477 C-6.24839266 34.9003327 -10.97498543 36.95927847 -15.75 39.0625 C-16.80356689 39.53695557 -17.85713379 40.01141113 -18.94262695 40.50024414 C-23.67704426 42.62540729 -28.42733487 44.71041244 -33.19921875 46.75 C-33.92496094 47.06138916 -34.65070313 47.37277832 -35.3984375 47.69360352 C-37.29651978 48.50242474 -39.20077098 49.29672679 -41.10546875 50.08984375 C-44.89375698 51.93928136 -48.0694943 53.99477784 -50.5625 57.4375 C-51.9442291 61.83391078 -51.6462907 65.50217634 -50.125 69.8125 C-45.77319811 76.34020283 -38.84054492 78.06213653 -31.5625 79.67578125 C-2.9109597 85.20868697 25.82483212 84.64493813 54.54321289 80.40429688 C76.58319558 77.16878726 76.58319558 77.16878726 82.6875 80.25 C86.01062503 82.82711737 87.87006711 84.86513422 89.75 88.625 C89.75 90.605 89.75 92.585 89.75 94.625 C119.45 94.625 149.15 94.625 179.75 94.625 C162.86243657 128.40012686 110.5648968 153.62592818 76.68676758 165.20263672 C62.24529724 169.95607702 47.76878518 173.31205067 32.75 175.625 C31.93901855 175.75487305 31.12803711 175.88474609 30.29248047 176.01855469 C-30.75092523 185.41389672 -96.0745952 168.10466951 -145.80078125 132.078125 C-152.80742051 126.87383998 -159.4550452 121.18668515 -166.05859375 115.484375 C-166.53095459 115.07670898 -167.00331543 114.66904297 -167.48999023 114.24902344 C-168.07079346 113.7130957 -168.65159668 113.17716797 -169.25 112.625 C-169.73175753 112.23671556 -170.21351505 111.84843111 -170.70987129 111.44838047 C-174.00376633 108.57519563 -175.14999604 107.16106371 -175.97825623 102.72123718 C-175.99850555 101.23051905 -175.9861229 99.73912209 -175.94702148 98.2487793 C-175.94950394 97.4302095 -175.95198639 96.61163971 -175.95454407 95.76826477 C-175.95545834 93.07762462 -175.91375261 90.38949153 -175.87109375 87.69921875 C-175.86243558 85.82689886 -175.85629194 83.95456579 -175.85255432 82.08222961 C-175.83535566 77.16504206 -175.78126315 72.24890411 -175.72027588 67.33209229 C-175.67657239 63.30575621 -175.65910879 59.27950565 -175.64300442 55.25297832 C-175.62344605 50.46416393 -175.59286327 45.67544837 -175.55859375 40.88671875 C-175.55216795 39.96835424 -175.54574215 39.04998974 -175.53912163 38.10379601 C-175.51823931 35.52050943 -175.4899492 32.93742811 -175.45874023 30.35424805 C-175.44999374 29.19558731 -175.44999374 29.19558731 -175.44107056 28.01351929 C-175.36534086 22.74034086 -175.36534086 22.74034086 -174.25 21.625 C-172.89905018 21.53231001 -171.54332909 21.50752674 -170.18920898 21.51147461 C-169.32839218 21.51155014 -168.46757538 21.51162567 -167.58067322 21.51170349 C-166.64526199 21.51686478 -165.70985077 21.52202606 -164.74609375 21.52734375 C-163.79307877 21.5287587 -162.84006378 21.53017365 -161.85816956 21.53163147 C-158.80124835 21.53724848 -155.74439923 21.54980384 -152.6875 21.5625 C-150.62044376 21.56751281 -148.55338638 21.57207609 -146.48632812 21.57617188 C-141.40752412 21.58722344 -136.3287743 21.60449945 -131.25 21.625 C-131.25 27.565 -131.25 33.505 -131.25 39.625 C-119.56999582 36.99223379 -119.56999582 36.99223379 -108.5 32.5625 C-99.91456433 28.39092635 -92.0176909 26.60494609 -82.5 26.25 C-65.47579111 25.36061252 -50.90220503 17.38949266 -35.9375 9.875 C-33.00998249 8.41834395 -30.08086574 6.9649608 -27.15107727 5.51287842 C-25.34419996 4.61592763 -23.5389384 3.7157126 -21.73551941 2.81182861 C-20.92649673 2.40760681 -20.11747406 2.00338501 -19.28393555 1.58691406 C-18.57496628 1.23115295 -17.86599701 0.87539185 -17.13554382 0.5088501 C-11.43800024 -2.16187778 -5.7943696 -2.45146406 0 0 Z " fill="#F8D5BF" transform="translate(246.25,323.375)"/>
<path d="M0 0 C4.33552621 0.48172513 6.26943857 1.59968223 9 5 C9.50336456 7.68306732 9.50336456 7.68306732 9.50793457 10.80700684 C9.52485352 12.58617744 9.52485352 12.58617744 9.54211426 14.40129089 C9.52996887 16.34797417 9.52996887 16.34797417 9.51757812 18.33398438 C9.52299943 19.7172367 9.53012214 21.10048326 9.53881836 22.48371887 C9.55705413 26.23790708 9.54998344 29.99165562 9.53730202 33.74585152 C9.52717553 37.67445181 9.53656671 41.60301444 9.54284668 45.53161621 C9.55012414 52.12905639 9.54053291 58.72631748 9.52148438 65.32373047 C9.49971531 72.9514843 9.50676662 80.57881047 9.52879 88.20655394 C9.5469413 94.75530009 9.54950369 101.3039175 9.53903532 107.85268068 C9.53279885 111.764097 9.53196881 115.67531229 9.54518127 119.5867157 C9.55673539 123.26406055 9.54872287 126.940854 9.52560425 130.61813927 C9.51779118 132.61165483 9.52967683 134.60521703 9.54211426 136.59870911 C9.53083496 137.78482285 9.51955566 138.97093658 9.50793457 140.19299316 C9.50567242 141.73934322 9.50567242 141.73934322 9.50336456 143.31693268 C8.86877512 146.6994636 7.63521962 147.8604034 5 150 C2.22206108 151.38896946 -0.03273773 151.12723424 -3.14257812 151.12939453 C-4.45681763 151.13250641 -5.77105713 151.13561829 -7.12512207 151.13882446 C-8.59383163 151.13701315 -10.06254096 151.13500214 -11.53125 151.1328125 C-13.07710799 151.13383041 -14.62296579 151.13517118 -16.16882324 151.1368103 C-20.39487045 151.13954398 -24.62088165 151.13497988 -28.84692383 151.12857056 C-31.49300242 151.12500942 -34.13907556 151.12338191 -36.78515625 151.12231445 C-80.19308135 151.10068671 -123.59639959 150.57245631 -167 150 C-167.49438477 147.99397786 -167.98876953 145.98795573 -168.4831543 143.98193359 C-169.07717831 141.70404652 -169.60234292 139.91258337 -171 138 C-173.45704762 136.76709799 -173.45704762 136.76709799 -176 136 C-176.66 135.67 -177.32 135.34 -178 135 C-186.93821435 134.15572422 -195.82720795 135.8372693 -204.6388855 137.13842773 C-233.72587553 141.3687433 -264.87963053 142.37985098 -293.5625 134.625 C-294.59588501 134.34813354 -294.59588501 134.34813354 -295.65014648 134.06567383 C-301.0728044 132.39859859 -305.48855523 129.61067732 -308.375 124.625 C-309.53011361 119.77352283 -309.66117237 116.34879164 -307.4375 111.8125 C-302.95308501 106.63817501 -296.29226921 104.0963334 -290.16015625 101.25 C-289.43436874 100.91000977 -288.70858124 100.57001953 -287.96080017 100.21972656 C-285.66265519 99.14370283 -283.36269439 98.07163477 -281.0625 97 C-278.76619583 95.92769781 -276.47030157 94.85453097 -274.1749115 93.78027344 C-272.75409446 93.11557753 -271.33271732 92.4520769 -269.91065979 91.79003906 C-267.93656936 90.86794924 -265.96719301 89.93670943 -264 89 C-263.2767453 88.65767334 -262.5534906 88.31534668 -261.80831909 87.96264648 C-261.09612213 87.61790283 -260.38392517 87.27315918 -259.65014648 86.91796875 C-259.00714096 86.60883545 -258.36413544 86.29970215 -257.7016449 85.98120117 C-254.30779912 84.02424443 -252.64229766 81.12402091 -250.75 77.8125 C-249.99292857 74.97348213 -249.924707 72.74890446 -249.953125 69.82421875 C-249.96327637 68.47009888 -249.96327637 68.47009888 -249.97363281 67.08862305 C-249.98233398 66.39937744 -249.99103516 65.71013184 -250 65 C-248.84078726 64.99761165 -247.68157452 64.99522329 -246.48723412 64.99276257 C-218.96916654 64.93540133 -191.45117452 64.86266982 -163.93319889 64.77101372 C-160.54612385 64.75974557 -157.15904839 64.74860712 -153.77197266 64.73754883 C-153.09766758 64.73534514 -152.4233625 64.73314146 -151.72862394 64.730871 C-140.81072614 64.69549971 -129.89282842 64.67063463 -118.97489457 64.64965298 C-107.77187822 64.62788958 -96.56893607 64.5946115 -85.36597884 64.55129844 C-79.07352628 64.52733568 -72.78115607 64.50862688 -66.48865891 64.50238609 C-60.56746713 64.49634912 -54.64648614 64.47639927 -48.72537231 64.44572449 C-46.55095507 64.43692203 -44.3765103 64.43322623 -42.20207596 64.43499184 C-39.2349263 64.43664059 -36.26842228 64.41997886 -33.30136108 64.39872742 C-32.43948382 64.40357499 -31.57760655 64.40842257 -30.68961179 64.41341704 C-24.59049195 64.34124858 -20.29417564 63.23067253 -15.77734375 58.83886719 C-13.49940581 55.20042456 -12.55668381 51.72505433 -11.5625 47.578125 C-11.35568604 46.75987244 -11.14887207 45.94161987 -10.93579102 45.09857178 C-10.27846832 42.485224 -9.63911394 39.86785326 -9 37.25 C-8.57146284 35.53747215 -8.14178485 33.82522935 -7.7109375 32.11328125 C-5.03534311 21.43386358 -2.49360558 10.72320052 0 0 Z " fill="#E2E8F1" transform="translate(503,268)"/>
<path d="M0 0 C4.99543387 2.80935014 7.57024072 5.82583266 9.72265625 11.1171875 C10.47638182 16.10337201 9.5860434 20.45871962 7.72265625 25.1171875 C9.38533455 25.46987684 11.05331342 25.79752611 12.72265625 26.1171875 C13.85703125 26.3646875 14.99140625 26.6121875 16.16015625 26.8671875 C19.73408943 27.43034571 19.73408943 27.43034571 22.59765625 25.6171875 C28.36249996 22.85006252 33.93226921 24.75633311 39.78515625 26.6796875 C41.10093718 27.14976992 42.41476886 27.62557025 43.72265625 28.1171875 C43.22765625 27.1890625 42.73265625 26.2609375 42.22265625 25.3046875 C40.11458754 20.34215255 40.01691044 15.41830092 40.72265625 10.1171875 C43.02108876 5.15257327 46.66653977 1.30135547 51.72265625 -0.8828125 C57.00511155 -1.76578105 61.25148719 -1.59115316 66.09765625 0.7421875 C67.39703125 1.9178125 67.39703125 1.9178125 68.72265625 3.1171875 C69.67140625 3.9215625 70.62015625 4.7259375 71.59765625 5.5546875 C75.28095548 10.1233952 74.25548589 16.60620664 73.72265625 22.1171875 C73.39265625 22.7771875 73.06265625 23.4371875 72.72265625 24.1171875 C73.4703125 24.16617188 74.21796875 24.21515625 74.98828125 24.265625 C75.973125 24.34039062 76.95796875 24.41515625 77.97265625 24.4921875 C78.9471875 24.56179687 79.92171875 24.63140625 80.92578125 24.703125 C83.64689863 25.10597199 85.31110534 25.88062629 87.72265625 27.1171875 C90.69790586 26.81966254 93.0450682 26.45598153 95.72265625 25.1171875 C97.59322416 24.889686 99.46951583 24.70755939 101.34765625 24.5546875 C102.85199219 24.42900391 102.85199219 24.42900391 104.38671875 24.30078125 C105.15757812 24.24019531 105.9284375 24.17960937 106.72265625 24.1171875 C106.39265625 23.4571875 106.06265625 22.7971875 105.72265625 22.1171875 C105.21535975 16.56187502 104.96005203 11.69888514 107.41015625 6.6171875 C114.08972557 -0.60396852 114.08972557 -0.60396852 118.640625 -1.0859375 C124.02918363 -1.19723303 127.94010055 -0.64197925 132.72265625 2.1171875 C136.92740862 6.20211532 138.8759507 9.46206072 138.97265625 15.3046875 C138.94604435 20.36094911 138.08785281 23.68244396 135.72265625 28.1171875 C136.233125 27.900625 136.74359375 27.6840625 137.26953125 27.4609375 C143.71077604 24.99407779 149.85392043 24.35178568 156.72265625 25.1171875 C158.06739668 25.76053454 159.40313127 26.42359104 160.72265625 27.1171875 C163.69995103 26.85719134 163.69995103 26.85719134 166.72265625 26.1171875 C167.67140625 25.9315625 168.62015625 25.7459375 169.59765625 25.5546875 C170.29890625 25.4103125 171.00015625 25.2659375 171.72265625 25.1171875 C171.39265625 24.2715625 171.06265625 23.4259375 170.72265625 22.5546875 C169.29771284 17.65644452 169.10289419 13.90356051 170.78515625 9.0546875 C173.5575386 4.85139812 177.18723861 1.38489632 181.72265625 -0.8828125 C188.18784042 -1.70102046 193.4295264 -0.76060546 198.72265625 3.1171875 C201.77814976 5.91311238 203.4799648 8.48221349 204.09375 12.6171875 C204.20878379 17.16440565 203.90208331 21.03076177 201.72265625 25.1171875 C202.69203125 25.2615625 203.66140625 25.4059375 204.66015625 25.5546875 C207.72265625 26.1171875 207.72265625 26.1171875 208.72265625 27.1171875 C212.82055294 26.73775262 215.2622456 26.42412793 218.72265625 24.1171875 C223.86311875 23.24979152 228.50857158 23.56004276 233.09765625 26.1171875 C237.84963941 29.54169358 240.08380547 33.63697182 241.1328125 39.3515625 C241.48620627 44.60716223 240.10109238 48.09393072 237.3046875 52.48828125 C235.72265625 54.1171875 235.72265625 54.1171875 230.72265625 56.1171875 C230.72265625 67.0071875 230.72265625 77.8971875 230.72265625 89.1171875 C223.72265625 87.1171875 223.72265625 87.1171875 221.16015625 85.4921875 C218.00591393 83.71287132 216.30641961 83.61546063 212.72265625 84.1171875 C210.93838937 85.07304476 209.15436384 86.03414493 207.4296875 87.09375 C201.878539 90.42189853 196.03224602 90.8931839 189.72265625 90.1171875 C184.99367705 88.69916262 180.82918888 86.85487592 176.72265625 84.1171875 C172.01665075 83.47545948 169.4253712 84.63888551 165.4296875 87.09375 C159.878539 90.42189853 154.03224602 90.8931839 147.72265625 90.1171875 C142.99367705 88.69916262 138.82918888 86.85487592 134.72265625 84.1171875 C129.31461272 83.19386299 125.61913444 85.43106792 120.9921875 87.92578125 C115.26351969 90.93308535 109.11579156 91.12556997 102.94921875 89.29296875 C99.25532298 87.83599227 96.03407021 86.32479681 92.72265625 84.1171875 C87.31461272 83.19386299 83.61913444 85.43106792 78.9921875 87.92578125 C73.71036896 90.69850871 68.56244739 90.92948928 62.72265625 90.1171875 C59.50165173 88.75993375 56.55667311 87.2035385 53.546875 85.4296875 C50.27459735 83.90896096 48.29296228 83.70358347 44.72265625 84.1171875 C42.28364206 85.11769923 42.28364206 85.11769923 40.09765625 86.5546875 C33.84280482 90.40635917 28.00328088 90.85409283 20.72265625 90.1171875 C16.29883345 88.72193098 12.5704539 86.68238593 8.72265625 84.1171875 C4.01474794 83.4752 1.42461483 84.64229115 -2.57421875 87.09375 C-8.41080638 90.60105725 -14.64973786 90.86951033 -21.27734375 90.1171875 C-26.02847691 88.72597171 -30.16150531 86.86107979 -34.27734375 84.1171875 C-40.05651489 84.33946331 -43.45833644 86.24431776 -48.27734375 89.1171875 C-49.26734375 89.1171875 -50.25734375 89.1171875 -51.27734375 89.1171875 C-51.27621582 88.14370361 -51.27508789 87.17021973 -51.27392578 86.16723633 C-51.27760777 82.54181196 -51.32049461 78.91771174 -51.375 75.29272461 C-51.39312457 73.72640533 -51.40073489 72.15992658 -51.39746094 70.59350586 C-51.39459314 68.33583082 -51.43000602 66.08143772 -51.47265625 63.82421875 C-51.46356232 63.12819046 -51.45446838 62.43216217 -51.44509888 61.71504211 C-51.5281371 58.91291884 -51.72435767 56.74417592 -53.618927 54.59606934 C-55.11432234 53.36329467 -56.69357715 52.23415839 -58.27734375 51.1171875 C-61.52485035 46.4430306 -60.84657759 40.55410044 -60.27734375 35.1171875 C-57.88140955 29.62650495 -53.67784021 26.49259384 -48.27734375 24.1171875 C-42.73349778 23.33910386 -39.29868248 24.8854814 -34.27734375 27.1171875 C-29.85757252 27.76398329 -27.11624852 26.25983203 -23.27734375 24.1171875 C-23.51324219 23.25867188 -23.51324219 23.25867188 -23.75390625 22.3828125 C-25.04364415 16.80036486 -25.10354365 11.87175127 -22.21484375 6.8046875 C-16.87679417 -0.66559976 -8.78375562 -3.40502362 0 0 Z " fill="#FB747D" transform="translate(257.27734375,148.8828125)"/>
<path d="M0 0 C29.7 0 59.4 0 90 0 C73.11243657 33.77512686 20.8148968 59.00092818 -13.06323242 70.57763672 C-27.50470276 75.33107702 -41.98121482 78.68705067 -57 81 C-57.81098145 81.12987305 -58.62196289 81.25974609 -59.45751953 81.39355469 C-114.67894219 89.89282086 -173.88749567 76.44531521 -221 47 C-220.67 39.74 -220.34 32.48 -220 25 C-161.02692686 24.54146207 -161.02692686 24.54146207 -138.1015625 28.0546875 C-128.99112479 29.29985248 -119.92395044 29.30065152 -110.7409668 29.26074219 C-107.83425733 29.25007981 -104.92817449 29.26066624 -102.02148438 29.2734375 C-82.98322069 29.29179084 -64.9221191 27.37143862 -46.375 23.125 C-44.83617569 22.78148336 -43.29711232 22.43903585 -41.7578125 22.09765625 C-38.70552299 21.41966547 -35.6563198 20.72956632 -32.60839844 20.03222656 C-29.43166574 19.31023412 -26.2488533 18.6364343 -23.05566406 17.99121094 C-22.246586 17.82354218 -21.43750793 17.65587341 -20.60391235 17.48312378 C-19.06893459 17.16614213 -17.5318686 16.85903744 -15.99252319 16.56399536 C-10.30776881 15.37228606 -5.81834756 13.38266232 -2.1875 8.625 C-0.66108865 5.54997566 -0.66108865 5.54997566 0 0 Z " fill="#566CC3" transform="translate(336,418)"/>
<path d="M0 0 C4.99543387 2.80935014 7.57024072 5.82583266 9.72265625 11.1171875 C10.3956297 15.10861625 9.8636551 18.57333479 8.84765625 22.4921875 C5.56208311 26.55083668 1.71423198 26.51789497 -3.27734375 27.1171875 C-4.55609375 27.3646875 -5.83484375 27.6121875 -7.15234375 27.8671875 C-10.55339529 28.13927162 -11.38209562 27.65528807 -14.27734375 26.1171875 C-18.63529347 25.56253935 -20.5045002 25.51999021 -24.02734375 28.2421875 C-27.74738032 32.99556756 -29.89886026 36.81581288 -29.625 43.03125 C-28.73166513 48.39125923 -26.4214267 52.09746139 -22.40234375 55.6796875 C-18.72117631 57.37302452 -17.10528277 57.30810186 -13.27734375 56.1171875 C-12.28734375 55.4571875 -11.29734375 54.7971875 -10.27734375 54.1171875 C-6.97505898 54.35735366 -4.22491628 54.61378959 -1.27734375 56.1796875 C1.83185714 57.63712542 4.32938364 57.40475298 7.72265625 57.1171875 C8.89828125 56.6015625 10.07390625 56.0859375 11.28515625 55.5546875 C15.16466018 53.93234949 16.74002555 53.99166143 20.72265625 55.1171875 C21.52703125 55.4678125 22.33140625 55.8184375 23.16015625 56.1796875 C26.54816779 57.41920392 29.13399842 57.43198205 32.72265625 57.1171875 C34.73852309 56.14957142 36.74019227 55.15151654 38.72265625 54.1171875 C42.13541124 53.60527425 43.50545728 54.0038663 46.59765625 55.6171875 C50.33854853 57.41281579 52.61271694 57.55753814 56.72265625 57.1171875 C57.71265625 56.6015625 58.70265625 56.0859375 59.72265625 55.5546875 C63.55648635 53.71764391 65.642139 54.13484075 69.72265625 55.1171875 C70.71265625 55.643125 70.71265625 55.643125 71.72265625 56.1796875 C74.83185714 57.63712542 77.32938364 57.40475298 80.72265625 57.1171875 C81.89828125 56.6015625 83.07390625 56.0859375 84.28515625 55.5546875 C88.1433789 53.94124894 89.76515122 53.97390827 93.72265625 55.1171875 C94.34140625 55.4678125 94.96015625 55.8184375 95.59765625 56.1796875 C98.90639483 57.63942511 102.1984544 57.58753552 105.72265625 57.1171875 C107.74589238 56.16507638 109.74965509 55.16945478 111.72265625 54.1171875 C115.13541124 53.60527425 116.50545728 54.0038663 119.59765625 55.6171875 C123.33854853 57.41281579 125.61271694 57.55753814 129.72265625 57.1171875 C130.71265625 56.6015625 131.70265625 56.0859375 132.72265625 55.5546875 C136.55648635 53.71764391 138.642139 54.13484075 142.72265625 55.1171875 C143.71265625 55.643125 143.71265625 55.643125 144.72265625 56.1796875 C147.83185714 57.63712542 150.32938364 57.40475298 153.72265625 57.1171875 C154.89828125 56.6015625 156.07390625 56.0859375 157.28515625 55.5546875 C161.16466018 53.93234949 162.74002555 53.99166143 166.72265625 55.1171875 C167.92921875 55.643125 167.92921875 55.643125 169.16015625 56.1796875 C172.54816779 57.41920392 175.13399842 57.43198205 178.72265625 57.1171875 C180.73852309 56.14957142 182.74019227 55.15151654 184.72265625 54.1171875 C188.13541124 53.60527425 189.50545728 54.0038663 192.59765625 55.6171875 C196.33854853 57.41281579 198.61271694 57.55753814 202.72265625 57.1171875 C204.20765625 56.34375 204.20765625 56.34375 205.72265625 55.5546875 C209.55648635 53.71764391 211.642139 54.13484075 215.72265625 55.1171875 C216.36203125 55.4678125 217.00140625 55.8184375 217.66015625 56.1796875 C221.80020673 58.06152863 226.48225219 57.53065552 230.72265625 56.1171875 C230.72265625 67.0071875 230.72265625 77.8971875 230.72265625 89.1171875 C223.72265625 87.1171875 223.72265625 87.1171875 221.16015625 85.4921875 C218.00591393 83.71287132 216.30641961 83.61546063 212.72265625 84.1171875 C210.93838937 85.07304476 209.15436384 86.03414493 207.4296875 87.09375 C201.878539 90.42189853 196.03224602 90.8931839 189.72265625 90.1171875 C184.99367705 88.69916262 180.82918888 86.85487592 176.72265625 84.1171875 C172.01665075 83.47545948 169.4253712 84.63888551 165.4296875 87.09375 C159.878539 90.42189853 154.03224602 90.8931839 147.72265625 90.1171875 C142.99367705 88.69916262 138.82918888 86.85487592 134.72265625 84.1171875 C129.31461272 83.19386299 125.61913444 85.43106792 120.9921875 87.92578125 C115.26351969 90.93308535 109.11579156 91.12556997 102.94921875 89.29296875 C99.25532298 87.83599227 96.03407021 86.32479681 92.72265625 84.1171875 C87.31461272 83.19386299 83.61913444 85.43106792 78.9921875 87.92578125 C73.71036896 90.69850871 68.56244739 90.92948928 62.72265625 90.1171875 C59.50165173 88.75993375 56.55667311 87.2035385 53.546875 85.4296875 C50.27459735 83.90896096 48.29296228 83.70358347 44.72265625 84.1171875 C42.28364206 85.11769923 42.28364206 85.11769923 40.09765625 86.5546875 C33.84280482 90.40635917 28.00328088 90.85409283 20.72265625 90.1171875 C16.29883345 88.72193098 12.5704539 86.68238593 8.72265625 84.1171875 C4.01474794 83.4752 1.42461483 84.64229115 -2.57421875 87.09375 C-8.41080638 90.60105725 -14.64973786 90.86951033 -21.27734375 90.1171875 C-26.02847691 88.72597171 -30.16150531 86.86107979 -34.27734375 84.1171875 C-40.05651489 84.33946331 -43.45833644 86.24431776 -48.27734375 89.1171875 C-49.26734375 89.1171875 -50.25734375 89.1171875 -51.27734375 89.1171875 C-51.27621582 88.14370361 -51.27508789 87.17021973 -51.27392578 86.16723633 C-51.27760777 82.54181196 -51.32049461 78.91771174 -51.375 75.29272461 C-51.39312457 73.72640533 -51.40073489 72.15992658 -51.39746094 70.59350586 C-51.39459314 68.33583082 -51.43000602 66.08143772 -51.47265625 63.82421875 C-51.46356232 63.12819046 -51.45446838 62.43216217 -51.44509888 61.71504211 C-51.5281371 58.91291884 -51.72435767 56.74417592 -53.618927 54.59606934 C-55.11432234 53.36329467 -56.69357715 52.23415839 -58.27734375 51.1171875 C-61.52485035 46.4430306 -60.84657759 40.55410044 -60.27734375 35.1171875 C-57.88140955 29.62650495 -53.67784021 26.49259384 -48.27734375 24.1171875 C-42.73349778 23.33910386 -39.29868248 24.8854814 -34.27734375 27.1171875 C-29.85757252 27.76398329 -27.11624852 26.25983203 -23.27734375 24.1171875 C-23.51324219 23.25867188 -23.51324219 23.25867188 -23.75390625 22.3828125 C-25.04364415 16.80036486 -25.10354365 11.87175127 -22.21484375 6.8046875 C-16.87679417 -0.66559976 -8.78375562 -3.40502362 0 0 Z " fill="#F5585C" transform="translate(257.27734375,148.8828125)"/>
<path d="M0 0 C3.35921375 1.14086505 6.40335502 2.49442513 9.515625 4.1875 C15.23741798 7.1727833 22.0475397 7.07260196 28.15234375 5.30078125 C31.82774837 3.84896944 35.01763938 2.32157375 38.3125 0.125 C43.66601241 -0.58880165 46.02145676 1.08551103 50.3125 4.125 C56.51241754 7.00868258 63.61361951 7.2080976 70.140625 5.296875 C73.8250677 3.85326295 77.01340685 2.32439543 80.3125 0.125 C85.17547728 -0.41160439 87.8442661 0.67578166 92 3.125 C98.006936 6.24327381 102.617469 7.40465966 109.3125 6.125 C116.31102027 4.0326079 116.31102027 4.0326079 122.3125 0.125 C127.63913313 -0.67399497 130.77936783 1.23354493 135.1640625 3.93359375 C140.17224552 6.71085888 145.72157842 6.83050299 151.3125 6.125 C158.31173486 4.02972366 158.31173486 4.02972366 164.3125 0.125 C169.63913313 -0.67399497 172.77936783 1.23354493 177.1640625 3.93359375 C182.18561558 6.71827318 187.70374619 6.72508065 193.3125 6.125 C198.04224748 4.71741648 202.20851348 2.86099101 206.3125 0.125 C211.0185055 -0.51672802 213.60978505 0.64669801 217.60546875 3.1015625 C223.15661725 6.42971103 229.00291023 6.9009964 235.3125 6.125 C240.0414792 4.70697512 244.20596737 2.86268842 248.3125 0.125 C254.3125 0.125 254.3125 0.125 266.3125 6.125 C266.3125 16.025 266.3125 25.925 266.3125 36.125 C173.5825 36.125 80.8525 36.125 -14.6875 36.125 C-14.6875 26.225 -14.6875 16.325 -14.6875 6.125 C-3.6875 0.125 -3.6875 0.125 0 0 Z " fill="#F8D5BE" transform="translate(221.6875,231.875)"/>
<path d="M0 0 C0.76166977 0.00222061 1.52333954 0.00444122 2.30809021 0.00672913 C3.16890701 0.00680466 4.02972382 0.00688019 4.91662598 0.00695801 C5.8520372 0.01211929 6.78744843 0.01728058 7.75120544 0.02259827 C8.70422043 0.02401321 9.65723541 0.02542816 10.63912964 0.02688599 C13.69605085 0.032503 16.75289996 0.04505836 19.80979919 0.05775452 C21.87685543 0.06276733 23.94391281 0.06733061 26.01097107 0.07142639 C31.08977507 0.08247795 36.16852489 0.09975397 41.24729919 0.12025452 C41.99642872 29.51960386 42.34274892 58.90012494 42.30979919 88.30775452 C42.30851517 89.46196648 42.30851517 89.46196648 42.3072052 90.63949585 C42.2958554 100.13310685 42.27583953 109.62667909 42.24729919 119.12025452 C25.98351704 115.51230708 8.701068 96.57402333 -2.75270081 85.12025452 C-2.94593585 82.44512438 -3.01498053 79.87395082 -2.99562073 77.19813538 C-2.99751907 76.38014969 -2.99941742 75.562164 -3.00137329 74.71939087 C-3.00508671 72.0078634 -2.99436971 69.29660205 -2.98316956 66.58509827 C-2.98197806 64.70705192 -2.98152453 62.82900496 -2.98178101 60.95095825 C-2.98021521 57.01247942 -2.97191761 53.07409137 -2.95851135 49.13563538 C-2.94150971 44.07555925 -2.93769728 39.01558287 -2.93845654 33.95548153 C-2.93818523 30.07715901 -2.93271063 26.19885851 -2.92545509 22.32054329 C-2.92226283 20.45413441 -2.92029973 18.58772303 -2.91956139 16.72131157 C-2.91740436 14.11849043 -2.90867439 11.51577725 -2.89796448 8.91297913 C-2.89841766 8.13425446 -2.89887085 7.35552979 -2.89933777 6.5532074 C-2.86089571 0.19628885 -2.86089571 0.19628885 0 0 Z " fill="#F5A123" transform="translate(73.75270080566406,344.87974548339844)"/>
<path d="M0 0 C0.33 0 0.66 0 1 0 C1 9.9 1 19.8 1 30 C11.23 30 21.46 30 32 30 C32.95261719 33.97289062 33.90523437 37.94578125 34.88671875 42.0390625 C35.65894252 45.21808399 36.4345119 48.39624762 37.21234894 51.57389832 C38.03072056 54.92110608 38.84321523 58.2694875 39.64135742 61.62158203 C40.5588358 65.47365725 41.50334303 69.31885741 42.44921875 73.1640625 C42.72964523 74.35802643 43.01007172 75.55199036 43.29899597 76.78213501 C45.36650046 85.05996344 47.71664774 90.14443183 55 95 C51.87472802 95.49023874 49.10235485 95.69985783 46 95 C44.25523494 93.09898732 43.25859727 91.27700106 42.16796875 88.9453125 C40.71634148 86.52755203 39.58108824 86.0692008 37 85 C29.6372613 83.67220448 24.09486316 86.35922766 17.6875 89.6875 C15.67940363 90.6895431 13.67023568 91.68944083 11.66015625 92.6875 C10.59555176 93.22117187 9.53094727 93.75484375 8.43408203 94.3046875 C2.84065467 97.06600981 -2.81585407 99.68927511 -8.47689819 102.3085022 C-10.36018041 103.18063715 -12.24139332 104.05711264 -14.12231445 104.93432617 C-15.83680786 105.73060425 -15.83680786 105.73060425 -17.5859375 106.54296875 C-18.6073584 107.01758545 -19.6287793 107.49220215 -20.68115234 107.98120117 C-23 109 -23 109 -24 109 C-24.11591075 99.56843939 -24.2047234 90.13712438 -24.25906086 80.7050066 C-24.28514188 76.32513564 -24.3205118 71.94575238 -24.37719727 67.56616211 C-24.43157163 63.33861698 -24.46143179 59.11154057 -24.47438622 54.88367271 C-24.48361648 53.27169097 -24.50164159 51.65973455 -24.52865028 50.04795265 C-24.56501547 47.78767336 -24.56994264 45.52932415 -24.56762695 43.26879883 C-24.57873001 41.98306473 -24.58983307 40.69733063 -24.60127258 39.37263489 C-23.84401563 35.12505854 -22.29685498 33.68405767 -19 31 C-15.69428083 29.34714041 -12.004622 29.8994882 -8.375 29.9375 C-5.61125 29.958125 -2.8475 29.97875 0 30 C0 20.1 0 10.2 0 0 Z " fill="#AEBFCD" transform="translate(206,238)"/>
<path d="M0 0 C4.99543387 2.80935014 7.57024072 5.82583266 9.72265625 11.1171875 C10.3956297 15.10861625 9.8636551 18.57333479 8.84765625 22.4921875 C5.56208311 26.55083668 1.71423198 26.51789497 -3.27734375 27.1171875 C-4.55609375 27.3646875 -5.83484375 27.6121875 -7.15234375 27.8671875 C-10.55339529 28.13927162 -11.38209562 27.65528807 -14.27734375 26.1171875 C-18.63529347 25.56253935 -20.5045002 25.51999021 -24.02734375 28.2421875 C-27.74738032 32.99556756 -29.89886026 36.81581288 -29.625 43.03125 C-28.99693947 46.79961317 -27.63840541 50.11219994 -25.27734375 53.1171875 C-24.26929688 53.66310547 -23.26125 54.20902344 -22.22265625 54.77148438 C-19.27734375 57.1171875 -19.27734375 57.1171875 -18.59619141 60.50878906 C-18.59713505 61.84217432 -18.63068477 63.17581023 -18.69140625 64.5078125 C-18.69989594 65.21242615 -18.70838562 65.91703979 -18.71713257 66.64300537 C-18.75063067 68.88597831 -18.82588327 71.12530849 -18.90234375 73.3671875 C-18.9324489 74.89057293 -18.95982378 76.41401494 -18.984375 77.9375 C-19.05040356 81.66523937 -19.15389246 85.39085775 -19.27734375 89.1171875 C-27.75909466 88.29269465 -27.75909466 88.29269465 -30.83984375 85.9921875 C-35.05933352 83.69064762 -36.70566726 83.81099422 -41.27734375 85.1171875 C-43.67776142 86.35211312 -45.95642549 87.73356315 -48.27734375 89.1171875 C-49.26734375 89.1171875 -50.25734375 89.1171875 -51.27734375 89.1171875 C-51.27621582 88.14370361 -51.27508789 87.17021973 -51.27392578 86.16723633 C-51.27760777 82.54181196 -51.32049461 78.91771174 -51.375 75.29272461 C-51.39312457 73.72640533 -51.40073489 72.15992658 -51.39746094 70.59350586 C-51.39459314 68.33583082 -51.43000602 66.08143772 -51.47265625 63.82421875 C-51.46356232 63.12819046 -51.45446838 62.43216217 -51.44509888 61.71504211 C-51.5281371 58.91291884 -51.72435767 56.74417592 -53.618927 54.59606934 C-55.11432234 53.36329467 -56.69357715 52.23415839 -58.27734375 51.1171875 C-61.52485035 46.4430306 -60.84657759 40.55410044 -60.27734375 35.1171875 C-57.88140955 29.62650495 -53.67784021 26.49259384 -48.27734375 24.1171875 C-42.73349778 23.33910386 -39.29868248 24.8854814 -34.27734375 27.1171875 C-29.85757252 27.76398329 -27.11624852 26.25983203 -23.27734375 24.1171875 C-23.51324219 23.25867188 -23.51324219 23.25867188 -23.75390625 22.3828125 C-25.04364415 16.80036486 -25.10354365 11.87175127 -22.21484375 6.8046875 C-16.87679417 -0.66559976 -8.78375562 -3.40502362 0 0 Z " fill="#F1585E" transform="translate(257.27734375,148.8828125)"/>
<path d="M0 0 C17.49 0 34.98 0 53 0 C53 26.4 53 52.8 53 80 C29.90472899 60.20405342 11.2039805 31.25351603 0 3 C0 2.01 0 1.02 0 0 Z " fill="#E1E8F2" transform="translate(18,349)"/>
<path d="M0 0 C4.81449636 1.66501333 7.63237791 4.11523585 10.14179993 8.63075256 C12.03269405 13.8509759 11.47774349 19.54931212 11.390625 25.02734375 C11.38315366 26.38496564 11.37746495 27.7425984 11.37347412 29.10023499 C11.35828762 32.6531107 11.31906839 36.20532002 11.2746582 39.75793457 C11.23355303 43.39126575 11.21543079 47.02470586 11.1953125 50.65820312 C11.15256556 57.77240608 11.08440093 64.88615926 11 72 C7.23909901 74.12466485 5.22594667 74.01055246 1 73 C0.34 72.67 -0.32 72.34 -1 72 C-2.95637514 71.9030368 -4.91622931 71.87021083 -6.875 71.875 C-7.92429687 71.87242187 -8.97359375 71.86984375 -10.0546875 71.8671875 C-12.57656554 71.98090614 -14.58685598 72.34658886 -17 73 C-17.06963738 65.01986193 -17.12288062 57.0398517 -17.15543652 49.05948448 C-17.171065 45.35351166 -17.19225119 41.64774736 -17.22631836 37.94189453 C-17.25901319 34.36275825 -17.27687419 30.78382202 -17.28463173 27.20454788 C-17.29015716 25.84184243 -17.30094704 24.47914741 -17.31719017 23.11652756 C-17.33909636 21.20198069 -17.34022653 19.28723075 -17.34057617 17.37255859 C-17.35056892 15.74040909 -17.35056892 15.74040909 -17.36076355 14.07528687 C-16.78750713 9.18862931 -15.07144721 5.96691577 -11.4375 2.6875 C-7.37241215 -0.12679159 -4.99278642 -0.40924479 0 0 Z " fill="#74BCEE" transform="translate(415,103)"/>
<path d="M0 0 C4.68170268 1.74416374 7.21249191 3.87035839 10 8 C11.05946564 11.17839691 11.12064296 13.41845348 11.11352539 16.7565918 C11.11344986 17.93758957 11.11337433 19.11858734 11.11329651 20.33537292 C11.10813522 21.61044205 11.10297394 22.88551117 11.09765625 24.19921875 C11.0962413 25.50454056 11.09482635 26.80986237 11.09336853 28.15473938 C11.0895538 31.62189656 11.07973244 35.08901174 11.06866455 38.55615234 C11.05842798 42.09537182 11.0538661 45.6345981 11.04882812 49.17382812 C11.03810923 56.11590265 11.02104534 63.05794931 11 70 C9.39988035 70.48223815 7.79958629 70.96389763 6.19921875 71.4453125 C5.30807373 71.71359863 4.41692871 71.98188477 3.4987793 72.25830078 C-2.99328611 74.18530564 -5.79925109 73.93126312 -12 71 C-13.65942337 70.63230043 -15.32558821 70.29194872 -17 70 C-17.09294278 62.42837765 -17.16388752 54.85681494 -17.20724869 47.28475094 C-17.22806691 43.76815994 -17.25627697 40.25196107 -17.30175781 36.7355957 C-17.35379134 32.68697482 -17.3729927 28.63876171 -17.390625 24.58984375 C-17.41127014 23.33541977 -17.43191528 22.08099579 -17.45318604 20.78855896 C-17.454932 13.96534029 -17.21045521 9.48572812 -13 4 C-8.67592177 0.25246553 -5.68231614 -0.71028952 0 0 Z " fill="#74BCEE" transform="translate(350,103)"/>
<path d="M0 0 C4.55081877 2.32002526 8.14884633 5.16278053 10 10 C10.55796113 14.78590713 10.46582891 19.5574687 10.390625 24.3671875 C10.38315652 25.77107942 10.37746646 27.17498183 10.37347412 28.57888794 C10.35826516 32.25835392 10.31902582 35.93717955 10.2746582 39.61639404 C10.23360214 43.3769871 10.21544118 47.13768451 10.1953125 50.8984375 C10.15252559 58.26591565 10.08433348 65.6328678 10 73 C8.8975293 72.6709668 7.79505859 72.34193359 6.65917969 72.00292969 C3.414339 71.11356449 1.50919032 70.81081833 -1.75 71.25 C-2.48734375 71.33765625 -3.2246875 71.4253125 -3.984375 71.515625 C-6.29681638 71.94876131 -6.29681638 71.94876131 -9 74 C-15.56603774 73.43396226 -15.56603774 73.43396226 -17 72 C-17.12549391 70.07428176 -17.18078439 68.14395593 -17.20874023 66.21435547 C-17.23767616 64.35639847 -17.23767616 64.35639847 -17.26719666 62.46090698 C-17.28200737 61.09634443 -17.29578024 59.73177027 -17.30859375 58.3671875 C-17.31516558 57.6817902 -17.3217374 56.9963929 -17.32850838 56.29022598 C-17.36114277 52.6576977 -17.38557569 49.02519912 -17.4050293 45.39257812 C-17.42279971 42.39116338 -17.45754135 39.39069585 -17.50756836 36.38964844 C-17.56794189 32.7638567 -17.59852906 29.13893905 -17.60820198 25.51266861 C-17.61673487 24.13397182 -17.63550007 22.755297 -17.6649456 21.37688828 C-17.90993088 9.24900338 -17.90993088 9.24900338 -14.21118164 4.72314453 C-9.92426659 0.50912966 -5.99348165 -0.62001534 0 0 Z " fill="#74BCEE" transform="translate(286,103)"/>
<path d="M0 0 C0.33 0 0.66 0 1 0 C1 22.11 1 44.22 1 67 C-3.42883953 65.22846419 -6.82999018 63.20642054 -10.625 60.4375 C-11.24036621 59.99204834 -11.85573242 59.54659668 -12.48974609 59.08764648 C-22.90726401 51.48024121 -32.87057098 43.12942902 -42 34 C-42.08843793 31.55169574 -42.11528752 29.13179401 -42.09765625 26.68359375 C-42.0962413 25.95253922 -42.09482635 25.22148468 -42.09336853 24.46827698 C-42.08775408 22.12464368 -42.07519922 19.78110461 -42.0625 17.4375 C-42.05748686 15.85221492 -42.05292363 14.26692834 -42.04882812 12.68164062 C-42.03777997 8.7877239 -42.02050572 4.89387795 -42 1 C-41.3819751 1.78858398 -40.7639502 2.57716797 -40.12719727 3.38964844 C-38.18432338 5.7738109 -36.40334809 7.44456209 -33.9375 9.25 C-33.26589844 9.75015625 -32.59429687 10.2503125 -31.90234375 10.765625 C-26.60620969 14.20213088 -20.0436606 13.7142508 -14 13 C-8.55373602 10.97213575 -4.33718744 8.19271439 -1.375 3.125 C-0.92125 2.09375 -0.4675 1.0625 0 0 Z " fill="#F28A00" transform="translate(114,397)"/>
<path d="M0 0 C-1.7325 0.7734375 -1.7325 0.7734375 -3.5 1.5625 C-15.79013166 7.78343084 -23.33879222 19.32570469 -28 32 C-32.74729896 47.90761582 -30.71784855 64.18627595 -23.125 78.8125 C-20.44879881 83.62201586 -17.38722314 87.48370248 -14 92 C-23.9 92 -33.8 92 -44 92 C-44.63964365 65.32914423 -45.18541185 38.67933913 -45 12 C-43.92331055 11.74677979 -42.84662109 11.49355957 -41.73730469 11.23266602 C-40.29874292 10.88593274 -38.86027109 10.5388262 -37.421875 10.19140625 C-36.36202393 9.94372498 -36.36202393 9.94372498 -35.28076172 9.69104004 C-29.45556651 8.27160956 -24.49556218 6.03930759 -19.11328125 3.3984375 C-13.31203543 0.79260814 -6.29288455 -2.14698414 0 0 Z " fill="#EDC0A7" transform="translate(160,351)"/>
<path d="M0 0 C1.02826233 3.72715574 2.04685527 7.45688692 3.0625 11.1875 C3.37687012 12.33831055 3.69124023 13.48912109 4.01513672 14.67480469 C5.74571226 21.08542849 7.37697199 27.49830449 8.84765625 33.97265625 C8.99757523 34.62497726 9.1474942 35.27729828 9.30195618 35.9493866 C10.03053238 39.12138122 10.74219071 42.2953065 11.42602539 45.47729492 C12.91011815 51.97896998 14.1296075 56.36006771 19 61 C20.00221549 61.9977796 21.00271861 62.99728876 22 64 C17.74698389 65.99624403 13.49281796 67.99000839 9.23754883 69.98144531 C7.78898447 70.65979423 6.3407413 71.33882945 4.89282227 72.01855469 C2.81610064 72.99332789 0.73825066 73.96565752 -1.33984375 74.9375 C-1.99089584 75.24373291 -2.64194794 75.54996582 -3.31272888 75.86547852 C-7.88612829 78 -7.88612829 78 -9 78 C-9.11591075 68.56843939 -9.2047234 59.13712438 -9.25906086 49.7050066 C-9.28514188 45.32513564 -9.3205118 40.94575238 -9.37719727 36.56616211 C-9.43157163 32.33861698 -9.46143179 28.11154057 -9.47438622 23.88367271 C-9.48361648 22.27169097 -9.50164159 20.65973455 -9.52865028 19.04795265 C-9.56501547 16.78767336 -9.56994264 14.52932415 -9.56762695 12.26879883 C-9.57873001 10.98306473 -9.58983307 9.69733063 -9.60127258 8.37263489 C-8.56637901 2.56774991 -5.86454371 0 0 0 Z " fill="#C6D5E4" transform="translate(191,269)"/>
<path d="M0 0 C0 13.86 0 27.72 0 42 C-6.6581762 42 -10.97931392 41.54842313 -17.125 39.8125 C-17.89714844 39.61591797 -18.66929687 39.41933594 -19.46484375 39.21679688 C-25.45940991 37.55731306 -30.13927773 35.21397483 -33.375 29.625 C-34.53011361 24.77352283 -34.66117237 21.34879164 -32.4375 16.8125 C-27.32114345 10.90901168 -19.1440433 8.05303781 -12.1875 4.75 C-11.23423828 4.29109375 -10.28097656 3.8321875 -9.29882812 3.359375 C-8.38939453 2.92625 -7.47996094 2.493125 -6.54296875 2.046875 C-5.71821045 1.65338867 -4.89345215 1.25990234 -4.04370117 0.85449219 C-2 0 -2 0 0 0 Z " fill="#C7D6E4" transform="translate(228,363)"/>
<path d="M0 0 C3.29239096 1.11817052 6.27238875 2.42676502 9.3203125 4.08984375 C11.57495118 5.26137169 13.9533883 6.18135532 16.3125 7.125 C16.3125 16.695 16.3125 26.265 16.3125 36.125 C6.0825 36.125 -4.1475 36.125 -14.6875 36.125 C-14.6875 26.225 -14.6875 16.325 -14.6875 6.125 C-3.6875 0.125 -3.6875 0.125 0 0 Z " fill="#EFC0A7" transform="translate(221.6875,231.875)"/>
<path d="M0 0 C0 10.23 0 20.46 0 31 C-8.86089239 29.89238845 -8.86089239 29.89238845 -11.5625 27.875 C-15.73519629 25.59898384 -17.48002301 25.74445084 -22 27 C-23.68029994 27.97691857 -25.34928604 28.97388051 -27 30 C-28.32 30 -29.64 30 -31 30 C-31 19.77 -31 9.54 -31 -1 C-27.7 -1 -24.4 -1 -21 -1 C-11.65773642 -4.82879655 -10.29500812 -3.43166937 0 0 Z " fill="#D13044" transform="translate(238,207)"/>
<path d="M0 0 C0.33 0 0.66 0 1 0 C1.01458252 0.85231201 1.02916504 1.70462402 1.04418945 2.58276367 C1.10543285 5.76071175 1.17962029 8.93802546 1.26245117 12.11547852 C1.29559806 13.48775958 1.32366171 14.86017362 1.34643555 16.23266602 C1.38016766 18.21137766 1.4340149 20.18971376 1.48828125 22.16796875 C1.51446533 23.35672607 1.54064941 24.5454834 1.56762695 25.77026367 C2.17469403 30.30492788 3.70431646 32.95625493 7.25 35.8125 C11.91169981 37.82550674 15.52865625 37.53760637 20.25 35.8125 C23.38818995 33.74414753 24.37464679 32.36244763 26 29 C26.50009694 25.71800543 26.50009694 25.71800543 26.51171875 22.16796875 C26.54716797 20.87568359 26.58261719 19.58339844 26.61914062 18.25195312 C26.64223681 16.89714066 26.66501935 15.54232282 26.6875 14.1875 C26.72069761 12.81311883 26.75518953 11.43876829 26.79101562 10.06445312 C26.87341264 6.70971766 26.94259395 3.35524096 27 0 C27.33 0 27.66 0 28 0 C28 20.13 28 40.26 28 61 C23.62241031 63.18879485 22.5551674 63.08927916 18 62 C17.34 61.67 16.68 61.34 16 61 C14.04362486 60.9030368 12.08377069 60.87021083 10.125 60.875 C9.07570313 60.87242187 8.02640625 60.86984375 6.9453125 60.8671875 C3.79022605 60.91177745 3.79022605 60.91177745 0 62 C0 41.54 0 21.08 0 0 Z " fill="#50A9E0" transform="translate(398,114)"/>
<path d="M0 0 C4.3036603 2.48288094 6.9983568 5.37171359 9.25 9.875 C9.78789246 16.20558054 9.8099517 21.38674113 6.25 26.875 C5.44755859 26.63330078 5.44755859 26.63330078 4.62890625 26.38671875 C1.7719178 25.7721613 -0.89083825 25.70560199 -3.8125 25.6875 C-5.37677734 25.66623047 -5.37677734 25.66623047 -6.97265625 25.64453125 C-9.9623948 25.66704696 -9.9623948 25.66704696 -12.75 27.875 C-16.69671094 27.80324162 -18.99834857 27.43392029 -22.1875 25.0625 C-24.62740017 20.08510365 -24.4801794 15.31077995 -23.75 9.875 C-18.79625522 -0.39943361 -10.42721469 -3.12816441 0 0 Z " fill="#F2575C" transform="translate(386.75,149.125)"/>
<path d="M0 0 C4.98496281 2.21764505 8.71377219 5.21666352 10.8046875 10.3515625 C11.58878188 15.63388255 11.35694829 20.56607353 8.8046875 25.3515625 C7.88236328 25.42503906 7.88236328 25.42503906 6.94140625 25.5 C6.13316406 25.57476562 5.32492187 25.64953125 4.4921875 25.7265625 C3.69167969 25.79617187 2.89117187 25.86578125 2.06640625 25.9375 C-0.46755691 26.24720676 -0.46755691 26.24720676 -3.1953125 28.3515625 C-5.62021256 28.15361147 -7.81783526 27.80588561 -10.1953125 27.3515625 C-11.04480469 27.24972656 -11.89429688 27.14789063 -12.76953125 27.04296875 C-19.62557495 26.07211293 -19.62557495 26.07211293 -22.3203125 22.6640625 C-23.61683679 17.75579196 -23.80871796 14.11961352 -22.1328125 9.2890625 C-16.76439569 1.14984992 -9.68263125 -2.85999428 0 0 Z " fill="#F3575C" transform="translate(450.1953125,148.6484375)"/>
<path d="M0 0 C0.33 0 0.66 0 1 0 C1.0093457 0.8470752 1.01869141 1.69415039 1.02832031 2.56689453 C1.07252612 5.73194352 1.13422527 8.89604812 1.20751953 12.06054688 C1.23561623 13.42598164 1.25688677 14.79157564 1.27099609 16.15722656 C1.29257982 18.12854038 1.3413546 20.09949631 1.390625 22.0703125 C1.41157227 23.25383301 1.43251953 24.43735352 1.45410156 25.65673828 C2.19494868 30.19392987 4.12044369 33.5741297 7.8125 36.375 C12.27940528 37.65125865 15.90872409 37.39873543 20.25 35.8125 C23.38818995 33.74414753 24.37464679 32.36244763 26 29 C26.50009694 25.71800543 26.50009694 25.71800543 26.51171875 22.16796875 C26.54716797 20.87568359 26.58261719 19.58339844 26.61914062 18.25195312 C26.64223681 16.89714066 26.66501935 15.54232282 26.6875 14.1875 C26.72069761 12.81311883 26.75518953 11.43876829 26.79101562 10.06445312 C26.87341264 6.70971766 26.94259395 3.35524096 27 0 C27.33 0 27.66 0 28 0 C28 19.47 28 38.94 28 59 C12.63529412 63.60941176 12.63529412 63.60941176 5 60 C3.35 59.67 1.7 59.34 0 59 C0 39.53 0 20.06 0 0 Z " fill="#50AAE0" transform="translate(333,114)"/>
<path d="M0 0 C4.99543387 2.80935014 7.57024072 5.82583266 9.72265625 11.1171875 C10.3956297 15.10861625 9.8636551 18.57333479 8.84765625 22.4921875 C5.55824428 26.55557876 1.71651416 26.50818044 -3.27734375 27.1171875 C-4.51484375 27.3853125 -5.75234375 27.6534375 -7.02734375 27.9296875 C-11.03198756 28.16072464 -12.81577792 27.06431828 -16.27734375 25.1171875 C-17.53546875 24.7871875 -18.79359375 24.4571875 -20.08984375 24.1171875 C-21.14171875 23.7871875 -22.19359375 23.4571875 -23.27734375 23.1171875 C-24.86963023 18.34032807 -25.27168029 13.65876521 -23.40625 8.890625 C-18.38981111 0.1077451 -9.81928924 -3.80644831 0 0 Z " fill="#F2585D" transform="translate(257.27734375,148.8828125)"/>
<path d="M0 0 C1.99724357 2.94800807 2.2033324 5.01649844 1.75 8.5 C1.66234375 9.2528125 1.5746875 10.005625 1.484375 10.78125 C1 13 1 13 -0.1328125 15.10546875 C-0.56207031 16.04326172 -0.56207031 16.04326172 -1 17 C-0.01789629 19.0088485 0.98440599 21.00787329 2 23 C3.26999053 30.05550292 -0.34941905 36.14663541 -4 42 C-7.49124017 44.32749345 -8.89222251 44.50299316 -13 44 C-15.375 42.5625 -15.375 42.5625 -17 40 C-17.56674666 35.79330298 -17.15858808 31.84051681 -16.375 27.6875 C-15.93372895 24.52505747 -16.59861017 23.76644733 -18 21 C-19.45438724 14.06369163 -16.8346497 8.64219823 -13.80078125 2.50390625 C-9.9318197 -2.87571273 -5.76009891 -2.39098445 0 0 Z " fill="#F9B841" transform="translate(420,45)"/>
<path d="M0 0 C0.60199219 0.77730469 1.20398438 1.55460938 1.82421875 2.35546875 C5.20982485 6.47046935 8.16403193 8.73771885 13.5 9.5 C20.17264158 8.54676549 22.86368903 5.17038871 27 0 C27 11.22 27 22.44 27 34 C24.69 33.34 22.38 32.68 20 32 C17.50342979 31.88961045 17.50342979 31.88961045 15.25 32.25 C14.51265625 32.33765625 13.7753125 32.4253125 13.015625 32.515625 C10.70318362 32.94876131 10.70318362 32.94876131 8 35 C1.43396226 34.43396226 1.43396226 34.43396226 0 33 C-0.08843793 30.55169574 -0.11528752 28.13179401 -0.09765625 25.68359375 C-0.0962413 24.95253922 -0.09482635 24.22148468 -0.09336853 23.46827698 C-0.08775408 21.12464368 -0.07519922 18.78110461 -0.0625 16.4375 C-0.05748686 14.85221492 -0.05292363 13.26692834 -0.04882812 11.68164062 C-0.03777997 7.7877239 -0.02050572 3.89387795 0 0 Z " fill="#4DACE1" transform="translate(269,142)"/>
<path d="M0 0 C2.875 1.5625 2.875 1.5625 5 4 C5.65598459 8.34589788 5.17230741 10.62985815 3.3125 14.625 C2.6628125 16.295625 2.6628125 16.295625 2 18 C3.30117552 20.50240018 3.30117552 20.50240018 5 23 C6.20593531 30.63759028 3.05029751 36.59442 -1 43 C-4.49565336 45.33043558 -5.8865729 45.58763244 -10 45 C-13.11768824 42.2925339 -13.91535506 40.66506739 -14.4375 36.5625 C-14 33 -14 33 -12.3125 29.875 C-11.879375 28.92625 -11.44625 27.9775 -11 27 C-11.95939668 25.30963442 -12.96642853 23.64605826 -14 22 C-14.81748787 16.47943375 -14.3086245 12.58117238 -11 8 C-10.67 7.13375 -10.34 6.2675 -10 5.375 C-7.84518138 0.25730577 -5.54449654 -0.77622952 0 0 Z " fill="#F6B744" transform="translate(287,44)"/>
<path d="M0 0 C2.375 1.4375 2.375 1.4375 4 4 C4.68211086 8.72361772 4.68086851 11.97869724 2 16 C2.34605611 18.28397032 2.96704519 19.93409037 4 22 C5.20691938 30.66232011 3.03587074 36.92890689 -2 44 C-4.84083641 45.42041821 -6.85477278 45.31452272 -10 45 C-12.375 43.5625 -12.375 43.5625 -14 41 C-14.68211086 36.27638228 -14.68086851 33.02130276 -12 29 C-12.25723969 26.97080157 -12.25723969 26.97080157 -13 25 C-13.96306898 22.11079306 -14.1955936 20.07752119 -14.25 17.0625 C-14.27578125 16.20785156 -14.3015625 15.35320313 -14.328125 14.47265625 C-13.93285474 11.49401251 -12.89121255 10.2881337 -11 8 C-10.10864756 6.14659606 -10.10864756 6.14659606 -9.4375 4.3125 C-7.30277477 -0.60664944 -5.12379153 -0.51237915 0 0 Z " fill="#F7B743" transform="translate(352,44)"/>
<path d="M0 0 C9.24 0 18.48 0 28 0 C28 11.22 28 22.44 28 34 C19.31247116 26.55354671 12.31480712 18.59051819 5.4375 9.5 C4.90036377 8.79311035 4.36322754 8.0862207 3.80981445 7.35791016 C3.31441162 6.6932373 2.81900879 6.02856445 2.30859375 5.34375 C1.64041626 4.44946289 1.64041626 4.44946289 0.95874023 3.53710938 C0 2 0 2 0 0 Z " fill="#C7D6E5" transform="translate(43,395)"/>
<path d="M0 0 C-0.33 0.99 -0.66 1.98 -1 3 C-1.48556326 8.51631707 -1.71821919 13.39118901 0.5625 18.5 C3.54348716 21.55742273 6.17735878 23.08867939 10 25 C10.804375 25.4125 11.60875 25.825 12.4375 26.25 C12.953125 26.4975 13.46875 26.745 14 27 C10.73036051 29.17975966 9.78270322 29.36904422 6 29 C5.443125 28.66097656 4.88625 28.32195312 4.3125 27.97265625 C0.51199339 26.37413236 -3.55708053 27.03560341 -7.59960938 27.34179688 C-9.56640625 27.41796875 -9.56640625 27.41796875 -13 27 C-16.62831196 22.93277934 -16.51158528 18.86223047 -16.34375 13.65234375 C-15.64468893 8.25845207 -12.65687951 5.34328957 -8.5625 2.125 C-5.63094449 0.14746363 -3.59843889 -0.54521801 0 0 Z " fill="#D13246" transform="translate(314,148)"/>
<path d="M0 0 C3.78493572 -0.60214886 5.66583576 -0.17731164 9.0625 1.625 C16.71073473 7.80867914 16.71073473 7.80867914 17.4140625 13.13671875 C17.65734886 23.01193342 17.65734886 23.01193342 14 27 C7.8402942 24.98216534 2.52033661 22.90909352 -1.1484375 17.21875 C-2.24306357 14.36669675 -2.26511354 11.98665603 -2.25 8.9375 C-2.25515625 7.89464844 -2.2603125 6.85179687 -2.265625 5.77734375 C-2 3 -2 3 0 0 Z " fill="#F3575C" transform="translate(314,148)"/>
<path d="M0 0 C-0.15855469 0.56074219 -0.31710937 1.12148437 -0.48046875 1.69921875 C-1.69617309 7.08305225 -1.97414807 12.85590575 0.5625 17.875 C3.46475188 21.59583575 5.78925061 22.97560126 10 25 C4.84856539 28.43428974 2.95497012 29.13796275 -3 28 C-3.84949219 27.89816406 -4.69898438 27.79632813 -5.57421875 27.69140625 C-12.43026245 26.72055043 -12.43026245 26.72055043 -15.125 23.3125 C-16.42152429 18.40422946 -16.61340546 14.76805102 -14.9375 9.9375 C-11.30613229 4.43187798 -6.7649028 0 0 0 Z " fill="#D03246" transform="translate(443,148)"/>
<path d="M0 0 C0.515625 0.2475 1.03125 0.495 1.5625 0.75 C1.2325 1.41 0.9025 2.07 0.5625 2.75 C0.05747657 8.28042052 -0.17557257 13.16030524 2.1875 18.25 C4.82479009 21.02609484 7.27621606 22.80810494 10.5625 24.75 C7.1248696 27.91261997 4.19724925 28.59018106 -0.4375 28.75 C-3.4375 27.4375 -3.4375 27.4375 -6.4375 25.75 C-7.695625 25.42 -8.95375 25.09 -10.25 24.75 C-11.301875 24.42 -12.35375 24.09 -13.4375 23.75 C-15.02978648 18.97314057 -15.43183654 14.29157771 -13.56640625 9.5234375 C-10.68853797 4.4848091 -6.36160548 -0.65247236 0 0 Z " fill="#D03145" transform="translate(247.4375,148.25)"/>
<path d="M0 0 C-0.10699219 0.78503906 -0.21398437 1.57007813 -0.32421875 2.37890625 C-1.06812316 8.89806859 -1.56245784 13.36901826 2 19 C3.90692577 20.85368672 5.87002491 22.39068549 8 24 C8 24.33 8 24.66 8 25 C7.38511719 25.12117188 6.77023437 25.24234375 6.13671875 25.3671875 C5.32847656 25.53476563 4.52023437 25.70234375 3.6875 25.875 C2.88699219 26.03742188 2.08648437 26.19984375 1.26171875 26.3671875 C-1.25301118 26.94478999 -1.25301118 26.94478999 -4 29 C-7.94671094 28.92824162 -10.24834857 28.55892029 -13.4375 26.1875 C-15.87740017 21.21010365 -15.7301794 16.43577995 -15 11 C-11.95970173 4.69419618 -7.15093908 0 0 0 Z " fill="#D03145" transform="translate(378,148)"/>
<path d="M0 0 C0.33 0 0.66 0 1 0 C2.32286246 4.96073422 2.08893197 9.91111512 2 15 C0.35 15 -1.3 15 -3 15 C-2.690625 14.01 -2.38125 13.02 -2.0625 12 C-0.91566793 8.02268878 -0.43287644 4.11232621 0 0 Z " fill="#636ABA" transform="translate(396,162)"/>
<path d="M0 0 C0.33 0 0.66 0 1 0 C1.33 3.96 1.66 7.92 2 12 C3.65 12 5.3 12 7 12 C7 12.33 7 12.66 7 13 C4.03 13 1.06 13 -2 13 C-1.34 8.71 -0.68 4.42 0 0 Z " fill="#836FAC" transform="translate(331,161)"/>
<path d="M0 0 C0.33 0 0.66 0 1 0 C1.06058594 0.61488281 1.12117188 1.22976562 1.18359375 1.86328125 C1.26738281 2.67152344 1.35117187 3.47976562 1.4375 4.3125 C1.51871094 5.11300781 1.59992188 5.91351563 1.68359375 6.73828125 C1.95265693 9.16087179 1.95265693 9.16087179 3 12 C0.03 12 -2.94 12 -6 12 C-6 11.67 -6 11.34 -6 11 C-4.35 11 -2.7 11 -1 11 C-0.67 7.37 -0.34 3.74 0 0 Z " fill="#7A6DAF" transform="translate(362,162)"/>
</svg>
